<?xml version="1.0" standalone="no"?>
<!DOCTYPE svg PUBLIC "-//W3C//DTD SVG 20010904//EN"
 "http://www.w3.org/TR/2001/REC-SVG-20010904/DTD/svg10.dtd">
<svg version="1.0" xmlns="http://www.w3.org/2000/svg"
 width="254.000000pt" height="218.000000pt" viewBox="0 0 254.000000 218.000000"
 preserveAspectRatio="xMidYMid meet">

<g transform="translate(0.000000,218.000000) scale(0.100000,-0.100000)"
fill="#000000" stroke="none">
<path d="M765 2069 c-200 -29 -386 -173 -480 -370 -62 -131 -66 -174 -63 -608
4 -422 2 -408 71 -561 75 -167 253 -312 437 -357 54 -13 113 -18 210 -18 132
0 137 1 221 36 157 66 243 138 349 297 49 73 90 178 90 233 0 32 23 43 81 37
l34 -3 5 -275 5 -275 140 -3 c77 -1 134 2 127 6 -9 7 -12 86 -10 363 l3 354
48 3 47 3 -2 -365 -3 -366 126 0 c123 0 127 1 133 23 3 12 6 154 6 315 l0 292
-35 0 -35 0 0 -310 0 -310 -50 0 -50 0 0 360 0 360 85 0 85 0 0 40 0 40 -812
0 c-447 0 -823 3 -835 6 -17 5 -23 14 -23 35 0 18 5 29 14 29 8 0 16 6 18 12
4 10 182 14 821 17 l817 3 0 39 0 39 -85 0 -85 0 0 126 c0 238 -35 348 -145
460 -124 126 -286 171 -447 125 -93 -27 -161 -66 -227 -131 -91 -90 -132 -184
-147 -337 l-7 -73 -48 0 -49 0 0 64 c0 292 195 523 490 582 123 24 231 10 348
-47 161 -78 297 -248 322 -405 6 -33 10 -108 10 -167 l0 -108 33 3 32 3 -2
123 c-2 140 -17 209 -67 314 -81 169 -242 301 -419 343 -81 19 -214 19 -317
-1 -67 -12 -84 -13 -97 -2 -19 16 -571 22 -668 7z m338 -136 c-7 -2 -19 -2
-25 0 -7 3 -2 5 12 5 14 0 19 -2 13 -5z m759 -141 c79 -38 149 -110 186 -190
26 -54 27 -66 30 -234 l4 -178 -50 0 -50 0 -4 168 c-4 190 -12 217 -88 286
-62 56 -113 76 -195 76 -88 0 -153 -28 -212 -92 -60 -67 -76 -102 -81 -190
l-5 -78 -55 0 -55 0 6 86 c13 178 110 305 282 367 37 13 72 17 136 14 73 -3
97 -8 151 -35z m-814 -141 c11 -7 11 -18 -3 -62 -9 -30 -19 -95 -22 -144 l-6
-90 -126 1 c-251 1 -241 0 -241 32 0 85 70 200 145 239 50 26 224 43 253 24z
m728 -20 c48 -22 101 -82 114 -131 6 -19 10 -61 10 -92 l0 -58 -210 0 -210 0
0 68 c0 56 5 75 31 120 58 101 164 139 265 93z m124 -398 l0 -48 -207 2 c-115
1 -367 2 -560 3 l-353 0 0 39 c0 22 5 42 13 44 6 3 258 6 560 6 l547 1 0 -47z
m-2 -355 l3 -48 -560 0 -561 0 0 29 c0 16 -3 36 -6 45 -8 20 47 22 646 21
l475 0 3 -47z m-874 -188 c-1 -55 -5 -65 -32 -92 -83 -84 -243 -23 -316 119
-9 18 -16 33 -16 35 0 2 82 2 182 1 l183 -2 -1 -61z m184 -25 c2 -75 -1 -95
-18 -122 -18 -31 -132 -123 -151 -123 -11 0 -59 52 -59 64 0 5 27 37 60 72
l60 62 0 72 0 71 53 -3 52 -3 3 -90z m192 36 c0 -33 5 -63 10 -66 20 -12 59
24 66 60 7 40 29 64 45 48 23 -23 -44 -189 -106 -263 -41 -50 -75 -72 -90 -61
-5 5 -22 11 -37 15 -32 7 -36 30 -10 59 14 16 17 40 18 136 1 64 2 119 3 124
0 4 24 7 51 7 l50 0 0 -59z m494 27 c3 -13 6 -134 6 -270 l0 -248 -50 0 -50 0
0 254 c0 140 2 261 5 268 3 8 22 15 44 16 33 2 39 -1 45 -20z"/>
</g>
</svg>
